<svg xmlns="http://www.w3.org/2000/svg" xmlns:xlink="http://www.w3.org/1999/xlink" viewBox="0 0 2563.72 1381.61"><defs><style>.cls-1{fill:none;}.cls-2{clip-path:url(#clip-path);}.cls-3{fill:#232b44;}.cls-4{fill:#2e3856;}.cls-5{fill:#171c30;}.cls-6{fill:#171d30;}.cls-7{fill:#242b44;}.cls-8{fill:#2b3652;}</style><clipPath id="clip-path"><rect class="cls-1" x="231.54" width="1924" height="1080"/></clipPath></defs><title>backgrounf</title><g id="Layer_2" data-name="Layer 2"><g id="Layer_1-2" data-name="Layer 1"><g class="cls-2"><rect class="cls-3" x="231.54" width="1937" height="1074"/><path class="cls-4" d="M178.54,655c14-6.34,27.68-11,41.44-18.61,21.54-11.85,42.34-25.06,63.87-36.95,23.26-12.85,47.77-26.79,66.95-45.56,8.52-8.34,17.16-16.13,26.43-23.62,4.19-3.39,12.17-4.88,13.16-11,9.5-1.61,19.37.37,28.94-.13,10.53-.55,15.17-8.78,19.2-17.39a208.26,208.26,0,0,1,58.14-74.17c7.07-5.65,13.86-13.75,21.8-18.19,6.74-3.77,13.59-5.62,20.11-10.35,10.17-7.38,19.73-14.4,26.22-25.4,4.33-7.33,8.09-15,12-22.57,2.61-5,7.33-12.09,7.63-18.39,8.34,1.32,16.94,4.11,23.3,9.77a95,95,0,0,0,9,7.38c2.82,1,5.64,2.07,8.44,3.16,8.54,4.45,17.15,6.09,27,6,13.79-.11,27.59,1.84,40.7-3.39a166.51,166.51,0,0,0,15.76-7.73,139.74,139.74,0,0,0,24.74-17.06c9.21-7.82,16.85-18.45,25.38-27.1,9.76-9.87,18.29-20.27,26.92-31.12,5.62-7.07,11.74-12.44,18.33-18.46,7.35-6.72,12.41-15.25,18.53-23,14.28-18,28-36.11,41.68-54.59,8.54-11.58,19-21.51,26-34l3,2.22a226.87,226.87,0,0,0,16.39,24.47c10.84,13.73,23.5,25.61,38.5,34.59,8.37,5,17.46,7.41,26,12,13.91,7.47,26.37,13.66,42.24,16.29,11.69,1.93,23.27,2.78,34.48,7,22.77,8.58,38,25.29,54.5,41.95,6.39,6.44,12.17,12.84,21.37,14,10.33,1.34,20.23,2.64,30.36,5.44,13,3.59,26,7,39,10.45,14.49,3.87,27.35,5.64,38.94,15.46,9.44,8,16.26,20.37,27.89,25.63,10.89,4.92,25.73,5.75,37.48,7.36,12.48,1.72,20.49,6.11,31.66,12.7,28.78,17,56.14,36.16,85.63,52,40.76,21.86,86.89,39.88,132.64,47.18a127.17,127.17,0,0,0,30.91,1.64c5.34-.3,8.53-.27,13.25,2.81,5.33,3.46,8.59,9.26,13.77,12.8,4.2,2.86,9.15,3.46,14.12,4.08,15.11,1.88,26.63,1.26,40.19-5.73,11.37-5.85,21.57-12.43,33.89-16.2a91.05,91.05,0,0,0,11.28-4c5.27-2.38,13.05-9.39,18.79-10.23,7-1,12.11,3.18,17.4,7.29L1755,474a123,123,0,0,0,21.39,15.14c8.74,6.07,15.45,14.7,24.6,20.16,7.83,4.67,17.1,6.52,25.81,8.8,24,6.31,46.74,13.36,70.08,22,15.64,5.76,31.29,12,47.06,17.36,6,2.08,11.13,2,16.72,3.51,10.14,2.83,21.84,15.86,29.63,21.27,13.93,9.67,28.43,16,43.89,22.5,27.88,11.67,57,19.87,85.76,29,41.51,13.27,83.12,26.14,125.37,36.94a777,777,0,0,0,93.14,18.14c9.32,1.22,18.29,2.66,27.43,4.22,7.46,1.27,16,1.71,23.58,2.29,12.59.95,27,1.67,39.23,5.15,7.95,2.26,7.44,3,14.34,11.4,18.19,22.19,32.06,48.56,43.3,74.8,13,30.42,17.6,59.23,23,91.56,4.59,27.26,10.31,54.13,15.74,81.25q9.09,42.79,14.81,86.15,9.72,60.35,19,120.74c2.91,22.19,9.76,45.28-1.23,65.9l-12.84,18.4q-18,23.94-38.34,46c-19.89,18.37-45.49,27.27-70.62,36.13-27.78,9.8-48.09,13.52-79.71,17l-88.22,4.4q-107.89,2-215.79,1c-72.8-.21-146.54-3.32-219.3.86-44.28,2.54-87.68,10.64-131.8,14.46-72.47,6.27-146.16,2.73-218.8,2.4-26.25-.12-52.33-.65-78.56,1.37l-35.39,3.88a1016,1016,0,0,1-111.87,3.13c-151.27.32-302.54-.24-453.81-.24q-127.81,0-255.62.31c-59.5.18-117.46-3-176.5-11-41.73-5.63-87.87-9.93-127.73-25.24-22.34-8.58-43.63-20.62-65.65-30.09a73.05,73.05,0,0,1-21.82-11.33,290.37,290.37,0,0,1-26.86-38c-11-16.29-21.86-34.57-34.92-49.26-12-13.45-28.53-19.86-42.2-31.54-20.8-17.79-33.14-39.46-41.36-65.44A200.89,200.89,0,0,1,.41,1058.2Q.14,1013,0,967.71c.39-29.26-.4-59.49,10.74-87.11a57.84,57.84,0,0,1,13.35-23q17.11-23.74,34-47.65C68.53,795.79,79,784.84,91.17,772.48s21.5-24.34,28.33-40.19c6.69-15.57,14.74-30.5,23-45.28,4.47-8,9-18.64,18.56-21.66,3.22-1,5.71-.82,8.91-2.2C174.43,661.22,180.75,658.11,178.54,655Z"/><path class="cls-3" d="M1729.54,468c4.4-2.53,10.49,8.54,12.91,11.69,3.18,4.13,7.48,7.15,11.14,10.79,1.68,1.67,2.72,4,4.46,5.5,1.18,1,2.46,1.62,3.69,2.72,3.47,3.12,7.22,5.67,10.5,9a51.3,51.3,0,0,0,9.48,7.82c4.18,2.62,9.4,1,13.88,2.9,1.08.46,2.33,2.07,3.54,2.44a21.13,21.13,0,0,0,4,.24c4.73.38,9.15,2.1,13.85,2.73,5.68.76,11.4,1.41,17,2.34,6.56,1.08,13.88,5.52,19.68,8.38,4.15,2.05,8.08,4.23,12.13,6.4,7.12,3.82,15.35,5,22.6,8.52,4.06,2,8.48,2.86,12.87,3.73a176.71,176.71,0,0,1,20.67,5.12c4.3,1.41,9.58,2.86,13.55,4.91,1.82.93,3.55,2,5.46,2.81a12.81,12.81,0,0,0,3.3,1,15.58,15.58,0,0,1,6,2c2.19,1.14,4.6,1.87,6.75,3.06,3.07,1.72,5.92,4.47,8.58,6.75,6.71,5.79,12.74,12.28,18.84,18.69,2.67,2.8,5.5,3.85,9.15,5.45,9.78,4.32,19.85,8.38,29.37,13.09,5.42,2.67,11.59,4.41,17.18,6.73,8.1,3.38,15.87,7.09,24.33,9.19a45.75,45.75,0,0,1,6.41,2.46c8.81,3.62,18.08,6.07,27.2,8.73,8.44,2.45,16.88,5.84,25.46,7.74,6,1.33,11.74,3.18,17.62,5.09,7,2.27,14.17,3.69,21.18,5.91,14.22,4.5,28.43,8.9,42.6,13.54,12.13,4,24.77,6.27,36.59,11.08,2.62,1.07,8.47,2.09,4.84,5.57-3.11,3-8.24,2-12.12,2-13.31-.18-26.52.42-39.78-1.07-12.74-1.43-25.73-2.23-38.28-4.88-8.48-1.79-16.6-4.88-25.2-6.18-9.09-1.36-18.49-2.14-27.67-2.75-9-.6-18,.22-27-.59-13.77-1.24-27.44-6.1-40.47-10.54-14.95-5.09-28.78-12.94-44.66-14.84-7.15-.86-14.83-2.11-21.24,1.91-1.71,1.07-2.72,2.9-4.29,4-2.52,1.74-6.31.95-9.17.94-9.92-.06-19.89.35-29.8,0-2.85-.09-5-1.21-7.68-2.21a63.43,63.43,0,0,0-23.85-3.93c-6.56.09-13.11-.21-19.63.7s-12.41,3.73-18.82,5.08c-7.36,1.55-14.6,1.32-22.07,1.32-2.63,0-4.71.32-7.07-1-6.55-3.62-9.59-12.36-16.53-15.42-1.8-.79-3.84-.74-5.79-.89-6.43-.5-12.9-.62-19.35-.94-5.72-.28-13.66.47-17.56-4.83-2.81-3.82-4.1-9.82-5.22-14.36-2.51-10.12-4.24-20.39-7.5-30.33-5.31-16.15-16.58-31-17.12-48.37-.25-8.25-1.71-16.33-2.79-24.5a58,58,0,0,0-2.75-12.21c-1-2.88-1.15-6.16-1.94-9.15-1.08-4.07-1.32-7.92-2-12A42.5,42.5,0,0,1,1729.54,468Z"/><path class="cls-5" d="M136.54,782c424.81-42,762.33-40.07,995-30,214.49,9.28,489.81,31.92,937,36,115.47,1,210.41.58,273,0l6,441-2235-15Z"/><polygon class="cls-6" points="2129.64 819.58 1046.54 817 285.44 863.11 1450.38 906.64 2129.64 819.58"/><polygon class="cls-7" points="2129.64 807.58 1046.54 805 285.44 851.11 1450.38 894.64 2129.64 807.58"/><path class="cls-5" d="M1859.79,771.49a19.88,19.88,0,0,1,17.78,5.85,6,6,0,1,1,11.37-3.57c-.43-4.65-.84-9.48.81-13.85s6-8.08,10.6-7.4c3.41.51,6.14,3.29,7.55,6.44s1.71,6.66,2,10.1a4.76,4.76,0,1,1,9.14-.46l13.41-12.69c2.56-2.42,5.29-4.93,8.73-5.68a9.72,9.72,0,0,1,4.29,18.95c3.19-4.23,9.65-5.4,14.3-2.86a13.05,13.05,0,0,1,6.2,13.52c-1.26,6.84-7.62,11.75-14.29,13.71-6.89,2-14.22,1.6-21.39,1.15l-49-3.05c-4.2-.26-11.28.63-14.82-2.25C1862.17,785.92,1861.29,776.48,1859.79,771.49Z"/><path class="cls-5" d="M1916.44,728.45A71.89,71.89,0,0,1,1942,758.16c-1.83-4-3.7-8.12-3.6-12.5s2.8-9,7.09-9.83c4.51-.86,8.87,2.86,10.36,7.2s.86,9.09.2,13.63a212.57,212.57,0,0,1,10.48-69.08,154.88,154.88,0,0,1,11,71.7l19.4-26.76,1.59,22.33,21.17-38.21a66.48,66.48,0,0,1,0,54.12c4.15-2.19,5.43-7.36,7.3-11.67s6.35-8.69,10.64-6.79c3.86,1.71,4.2,7,3.94,11.18-.69,11.51-2.26,24.64-11.72,31.24-7.32,5.09-17.08,4.51-25.88,3.1-18.17-2.91-44.69-8.41-58.82-19.61-7.37-5.84-13.38-15.05-18-23.1a104,104,0,0,1-6.3-13C1919.9,739.76,1918.22,729.62,1916.44,728.45Z"/><path class="cls-5" d="M2036,771.88c-1.28-5-2-11.61,2.55-14.18,3.17-1.81,7.39-.29,9.79,2.45s3.41,6.4,4.35,9.92a75.64,75.64,0,0,1,4.85-42,63.67,63.67,0,0,1,10.54,40.75l12.29-21.84,4.44,17.9a139.15,139.15,0,0,1,20.61-63.71,200.79,200.79,0,0,1,2.76,75,52,52,0,0,1,16-25,26.64,26.64,0,0,1,1.59,23.11l28.13-41.93a82.06,82.06,0,0,1-3.07,44.32c-.24-4.15,2.38-8.71,6.49-9.3s8.12,4.7,5.58,8l16.62-35.64,5.1,36.39a17.41,17.41,0,0,1,12.9-12.46,22.64,22.64,0,0,1-10.65,37.93c-10.28,2.54-20.74-2.28-30.74-5.8a130.69,130.69,0,0,0-82.19-1.23c-5.3,1.69-10.58,3.73-16.13,4.13C2040.18,799.85,2039.39,785.15,2036,771.88Z"/><path class="cls-5" d="M205.54,703c7.78-5.56,27.24,6.54,37,15.51a63.85,63.85,0,0,1,14.93,20.8,462.3,462.3,0,0,1,26.59-56.85c11.11-20,15.45-24.16,18.48-23.46,3.43.8,5.18,7.85,6.61,34.3,1.18,21.84,1.21,39.69,1,51.66a40.56,40.56,0,0,0,17.36-10c5.7-5.68,6.12-9.9,10.72-16.78,7-10.54,20.36-22.06,26.28-19.22,5.18,2.49,3.69,15.51,1,39-1.42,12.41-2.19,18.75-5,25a57.06,57.06,0,0,1-22.49,25.17c-9.09,5.37-18.08,7-28.95,7.8-30.09,2.11-53.32,3.74-73.56-10C202.43,763.58,193.89,711.33,205.54,703Z"/><path class="cls-5" d="M379.21,783.55c-9.12-.58-16.32-7.86-21.68-15.26a121,121,0,0,1-20.06-95c10.93-2.18,20.75,7.57,25.36,17.71s6.54,21.72,13.47,30.45a244.28,244.28,0,0,1,30.88-104.61c1.53-2.7,3.73-5.73,6.83-5.55,3.82.23,5.37,5,5.89,8.77a329.42,329.42,0,0,1-1,95.15l26.35-48.54c1.73-3.18,3.51-6.44,6.27-8.79s6.73-3.62,10.07-2.22c5,2.11,6.13,8.68,6.12,14.13a120,120,0,0,1-12.57,53l34.32-30.92c3.42,14.31,6.87,28.87,6.1,43.56s-6.36,29.83-18,38.82c-10,7.71-23.06,10-35.64,11.13a243.41,243.41,0,0,1-77.17-5.64"/><path class="cls-5" d="M457.77,723c1-8.69,10.36-14.45,19.11-14.61s17,3.84,24.83,7.73a21.36,21.36,0,0,1,32.45-18,217.71,217.71,0,0,1-10.52-64.25c-.09-7.8.32-15.89,3.88-22.83s11.09-12.4,18.8-11.26c9.48,1.41,14.95,11.35,18.22,20.35a180.94,180.94,0,0,1,10.63,70.34,55.3,55.3,0,0,1,19.59-27.79c3.34-2.5,7.36-4.7,11.47-4,5.66.93,9.16,7.17,9,12.9s-2.89,11-5.61,16.06c4.06-5.46,8.27-11.06,14.08-14.61s13.68-4.58,19.29-.72,7.42,11.41,7.26,18.24S648.48,704.2,649,711l19.59-2.44c4.81-.6,9.64-1.2,14.42-2.05,12.19-2.17,24.32-6.09,34.25-13.49,5.44,9.77,9.75,20.4,10.62,31.55s-2,22.9-9.55,31.19c-10.93,12.08-28.7,14.52-44.93,15.88C622.09,776,570.54,777,519,778c-10.27.2-21,.31-30.26-4.08-10.7-5-13.37-15.09-18.05-24.9C466.69,740.56,456.58,733.15,457.77,723Z"/><polygon class="cls-8" points="187.54 876 2260.54 948 2148.54 1173 141.54 1146 187.54 876"/><polygon class="cls-8" points="2238.54 816 1207.54 951 1335.54 1133 2310.54 957 2238.54 816"/><path class="cls-3" d="M888.54,177c-3.67,4.78-3.27,12.74-3.87,18.34a125.88,125.88,0,0,1-6,27.39c-1.24,3.62-2.84,7.07-4.16,10.66-1.59,4.33-1.1,8.49-2.31,12.63-1,3.49-3,6.71-4,10.33a50.81,50.81,0,0,1-5.61,12.35c-1.9,2.93-5.31,5.21-6.92,8.31-1.75,3.38-1.41,8-2.07,11.87-2,11.91-.73,24.22-1,36.29-.12,5.63-1.14,10.93,1.27,16.33,5.2,11.66,14.48,22,22.32,31.94,4.06,5.16,2.27,12,2.39,18.47.1,5.4,0,8.4-2.47,13.49-2.32,4.85-2.57,9.55-4.37,14.44-2.72,7.44-6.18,12.81-7,21.1-.5,4.8-1.45,9.24-2.19,14-2.25,14.34-5.78,36,3.75,48.27,12.72,16.4,29.2,29.27,43.48,44.24,10.1,10.6,20.43,20.61,31.46,30.22,12.61,11,26.24,21.81,35.06,36.22,7.19,11.74,14.18,23.78,22.84,34.51,8.21,10.17,17.37,19.56,25.84,29.53,7.89,9.28,15.52,18.47,25.59,25.52,8.77,6.14,17.79,11,26.52,17.48s17.36,13.34,26.52,19.41A227.85,227.85,0,0,0,1124,752.43c10.9,5.68,22.88,9.6,33,16.71,15.79,11.07,30.7,23,47,33.49,22.79,14.71,37.74,28.32,51.61,35,47.27,22.78,119.29,7.49,127.12-19.62,5.68-19.68-26.28-34.29-70-93.49-20.1-27.18-30.22-60.81-53-86.29,6.68-3.19,14.8,2,20.95,4.64,8.17,3.51,16.15,7.41,24.45,10.6,14.82,5.7,30.36,7.79,45.23,13.16,8.55,3.09,17.8,1.68,26.28,4.8,6.64,2.44,12.26,6.94,17.92,11,10.91,7.88,21.78,15.79,32.84,23.47,8.46,5.86,17,11.27,25,17.61,9.64,7.63,21.15,13.63,31.83,19.58a496.54,496.54,0,0,0,65.51,30.11c19.25,7.32,37.68,15.93,56.43,24.32,7.22,3.23,13.78,4.44,21.21,6.22-15.53-8.79-26.09-24.1-37.35-37.42q-10.5-12.75-22.19-24.43-12.48-11-25-21.94c-14.67-14-26.54-30-42.23-42.93-17.08-14.06-35.72-26.93-54-39.46-12.21-8.38-24.83-15.51-36.22-25.06-7-5.89-15.11-11.15-18.26-20.18-4.19-12-2.66-25.48-7.3-37.43q-4.83-9.15-9.8-18.21a37.4,37.4,0,0,1-.81-10c-.66-10.5-.9-11.92,10.77-11.94,12.55,0,24.42-.08,36.91-1.34,14.35-1.44,29.48,2,43.33-2.44,6.21-2,11.43-1.43,17.72-2.39,5.26-.81,10.36-2.48,15.64-3.21,10.13-1.39,21.93,1.92,31.73-.6-14-7.1-29.86-8.23-44.39-13.74-6.65-2.53-13.32-3-20.14-4.47-10.53-2.32-22.18-8.86-31.8-13.24-13.65-6.22-26.3-14-39.45-21.17-10-5.47-20.34-10.34-29.91-16.64-17-11.21-35.81-18.86-53.67-28.6-12.69-6.93-25.73-12.82-39-18.5-15.1-6.44-31.4-9.2-47.12-13.74-10.62-3.06-18.34-10-24-19.66-4.22-7.22-10.24-13.81-18-17.63-6-3-14-2.15-20.47-3.41a155.82,155.82,0,0,0-25.5-3c-14.18-.48-37.8.3-50.8-7.62-15-9.17-17.35-28.18-25.55-42.32-2.81-4.83-7.12-13.31-12.69-15.68-3.61-1.54-8.9-2.15-12.74-2.48-4.88-.41-9.9.37-14.8.2-10.11-.34-19.83-2.36-30-2.11-5.13.12-9.91.91-14.5-1.95-7.2-4.48-13.6-11.56-20-17.21-10.39-9.19-19.85-18.84-31.87-26-4.21-2.51-7.4-4.11-11.11-7.56-3.35-3.12-7.3-7.74-11.89-9-2.73-.77-3.87.39-6.39-1C891.5,196.62,890.88,191.41,888.54,177Z"/></g></g></g></svg>